<svg xmlns="http://www.w3.org/2000/svg" version="1.1" xmlns:xlink="http://www.w3.org/1999/xlink" xmlns:svgjs="http://svgjs.dev/svgjs" width="1500" height="1500" viewBox="0 0 1500 1500"><rect width="1500" height="1500" fill="#ffffff"></rect><g transform="matrix(0.6666666666666666,0,0,0.6666666666666666,249.72204714521342,318.2784946236559)"><svg viewBox="0 0 288 248" data-background-color="#f9f9f9" preserveAspectRatio="xMidYMid meet" height="1291" width="1500" xmlns="http://www.w3.org/2000/svg" xmlns:xlink="http://www.w3.org/1999/xlink"><g id="tight-bounds" transform="matrix(1,0,0,1,0.08005042217854452,0.4000000000000057)"><svg viewBox="0 0 287.8398991556429 247.2" height="247.2" width="287.8398991556429"><g><svg viewBox="0 0 395.52 339.67682828825514" height="247.2" width="287.8398991556429"><g transform="matrix(1,0,0,1,0,252.73630794135718)"><svg viewBox="0 0 395.52 86.94052034689793" height="86.94052034689793" width="395.52"><g id="textblocktransform"><svg viewBox="0 0 395.52 86.94052034689793" height="86.94052034689793" width="395.52" id="textblock"><g><svg viewBox="0 0 395.52 86.94052034689793" height="86.94052034689793" width="395.52"><g transform="matrix(1,0,0,1,0,0)"><svg width="395.52" viewBox="0.93 -31.49 146.37 32.17" height="86.94052034689793" data-palette-color="#030303"><path d="M30.13 0.24L25.39 0.24 8.59-27.44Q8.57-27.44 8.56-27.44 8.54-27.44 8.54-27.44L8.54-27.44 8.54-4.27Q8.54-2.91 9.16-2.66 9.77-2.42 11.65-2.42L11.65-2.42 12.96-2.42 12.96 0Q11.65 0 10.45-0.02 9.25-0.05 7.4-0.05L7.4-0.05Q5.42-0.05 3.94-0.02 2.47 0 0.93 0L0.93 0 0.93-2.42 2.49-2.42Q3.88-2.42 4.44-2.61 5-2.81 5.11-3.25 5.22-3.69 5.22-4.42L5.22-4.42 5.22-27.08Q5.22-28.54 4.75-28.81 4.27-29.08 2.56-29.08L2.56-29.08 1.05-29.08Q1.05-29.3 1.05-29.61 1.05-29.93 1.06-30.29 1.07-30.64 1.07-30.96 1.07-31.27 1.07-31.49L1.07-31.49Q1.07-31.49 1.68-31.49 2.29-31.49 3.14-31.49 3.98-31.49 4.72-31.48 5.47-31.47 5.71-31.47L5.71-31.47Q6.2-31.47 6.81-31.47 7.42-31.47 8.08-31.48 8.74-31.49 9.36-31.49 9.99-31.49 10.5-31.49L10.5-31.49Q10.5-31.49 11.38-30.03 12.26-28.56 13.72-26.17 15.19-23.78 16.92-20.9 18.65-18.02 20.39-15.15 22.12-12.28 23.58-9.89 25.05-7.5 25.93-6.03 26.81-4.57 26.81-4.57L26.81-4.57 26.81-27.32Q26.78-28.59 26.17-28.83 25.56-29.08 23.73-29.08L23.73-29.08 22.46-29.08 22.46-31.49Q24.39-31.49 25.71-31.46 27.03-31.42 28.1-31.42L28.1-31.42Q28.37-31.42 29.33-31.43 30.3-31.45 31.45-31.46 32.59-31.47 33.42-31.48 34.25-31.49 34.25-31.49L34.25-31.49 34.25-29.08 32.71-29.08Q30.79-29.08 30.46-28.65 30.13-28.22 30.13-27.37L30.13-27.37Q30.13-27.39 30.13-25.9 30.13-24.41 30.13-21.95 30.13-19.48 30.13-16.54 30.13-13.6 30.13-10.64 30.13-7.69 30.13-5.22 30.13-2.76 30.13-1.26 30.13 0.24 30.13 0.24L30.13 0.24ZM48.97 0.68L48.97 0.68Q45.29 0.68 42.64-0.76 39.99-2.2 38.57-4.8 37.16-7.4 37.16-10.86L37.16-10.86Q37.16-14.38 38.6-16.99 40.04-19.6 42.65-21.06 45.26-22.51 48.73-22.51L48.73-22.51Q52.24-22.51 54.78-21.08 57.32-19.65 58.7-16.96 60.08-14.26 60.1-10.47L60.1-10.47 58.64-10.03 41.35-10.03Q41.4-6.13 43.64-3.91 45.87-1.68 49.53-1.68L49.53-1.68Q52.07-1.68 53.98-2.7 55.88-3.71 56.78-6.05L56.78-6.05 59.74-6.05Q58.76-2.71 55.91-1.01 53.05 0.68 48.97 0.68ZM41.38-12.16L41.38-12.16 56.15-12.16Q55.86-15.89 53.94-18.02 52.02-20.14 48.78-20.14L48.78-20.14Q45.68-20.14 43.74-17.99 41.79-15.84 41.38-12.16ZM73.75 0.51L73.75 0.51Q71.24 0.51 69.54-0.11 67.84-0.73 66.77-2.03L66.77-2.03 66.52-0.2Q65.99-0.2 65.46-0.21 64.94-0.22 64.37-0.22L64.37-0.22 64.37-7.25 66.74-7.25Q66.79-4.49 68.48-3.04 70.16-1.59 73.19-1.59L73.19-1.59Q75.68-1.59 77.24-2.6 78.8-3.61 78.8-5.35L78.8-5.35Q78.8-6.64 77.83-7.41 76.85-8.18 75.25-8.72 73.65-9.25 71.75-9.79L71.75-9.79Q69.45-10.5 67.89-11.3 66.33-12.11 65.55-13.28 64.77-14.45 64.77-16.21L64.77-16.21Q64.77-18.77 66.9-20.54 69.04-22.31 72.63-22.31L72.63-22.31Q74.63-22.31 76.41-21.79 78.19-21.26 79.29-20.12L79.29-20.12Q79.32-20.17 79.44-20.57 79.56-20.97 79.68-21.37 79.8-21.78 79.8-21.78L79.8-21.78Q79.8-21.78 80.22-21.77 80.63-21.75 81.09-21.75 81.54-21.75 81.64-21.73L81.64-21.73 81.64-15.09 79.34-15.09Q79.24-17.53 77.7-18.86 76.17-20.19 73.31-20.19L73.31-20.19Q70.87-20.19 69.67-19.12 68.48-18.04 68.48-16.65L68.48-16.65Q68.48-15.14 70.01-14.32 71.55-13.5 73.99-12.87L73.99-12.87Q76.63-12.18 78.57-11.39 80.51-10.6 81.56-9.33 82.61-8.06 82.61-5.93L82.61-5.93Q82.61-3.86 81.51-2.42 80.41-0.98 78.43-0.23 76.44 0.51 73.75 0.51ZM94.55 0.56L94.55 0.56Q92.28 0.56 91.09-0.4 89.91-1.37 89.49-3.13 89.08-4.88 89.08-7.23L89.08-7.23 89.08-19.68 85.08-19.68 85.08-21.61Q85.88-21.63 86.92-21.72 87.96-21.8 88.73-21.88 89.49-21.95 89.49-21.95L89.49-21.95Q89.52-22.19 89.6-23.03 89.69-23.88 89.79-24.87 89.89-25.85 89.96-26.6 90.03-27.34 90.03-27.39L90.03-27.39 93.13-28.03 93.13-21.85 98.99-21.85 98.99-19.68 93.16-19.68 93.16-7.45Q93.16-4.98 93.43-3.52 93.69-2.05 95.43-2.05L95.43-2.05Q96.14-2.05 96.71-2.64 97.28-3.22 97.28-4.69L97.28-4.69 99.5-4.91Q99.5-2.05 98.03-0.74 96.55 0.56 94.55 0.56ZM114.32 0.68L114.32 0.68Q110.88 0.68 108.27-0.76 105.65-2.2 104.18-4.8 102.7-7.4 102.7-10.91L102.7-10.91Q102.7-14.43 104.18-17.04 105.65-19.65 108.28-21.08 110.9-22.51 114.32-22.51L114.32-22.51Q117.76-22.51 120.39-21.08 123.01-19.65 124.5-17.05 125.99-14.45 125.99-10.91L125.99-10.91Q125.99-7.42 124.51-4.81 123.04-2.2 120.41-0.76 117.79 0.68 114.32 0.68ZM114.32-1.86L114.32-1.86Q117.69-1.86 119.72-4.32 121.74-6.79 121.74-10.94L121.74-10.94Q121.74-15.11 119.73-17.55 117.71-20 114.32-20L114.32-20Q110.93-20 108.93-17.57 106.92-15.14 106.92-10.94L106.92-10.94Q106.92-6.79 108.93-4.32 110.93-1.86 114.32-1.86ZM129.14 0L129.14 0 129.14-2.22Q131.02-2.22 131.8-2.34 132.58-2.47 132.75-2.81 132.92-3.15 132.92-3.81L132.92-3.81 132.92-18.55Q132.92-19.41 132.25-19.54 131.58-19.68 129.26-19.68L129.26-19.68 129.26-21.85Q129.63-21.85 130.44-21.85 131.26-21.85 131.97-21.84 132.68-21.83 132.68-21.83L132.68-21.83Q133.68-21.83 134.73-21.88 135.78-21.92 136.88-21.95L136.88-21.95 136.88-17.5Q138.05-19.78 140.15-21.07 142.25-22.36 145.08-22.36L145.08-22.36Q146.18-22.36 147.3-22.22L147.3-22.22 147.3-16.89Q146.94-16.89 146.57-16.89 146.2-16.89 145.84-16.89L145.84-16.89Q145.35-18.07 144.63-18.76 143.91-19.46 142.61-19.46L142.61-19.46Q140.22-19.46 138.67-17.21 137.12-14.97 137.07-11.4L137.07-11.4Q137.07-11.4 137.07-10.63 137.07-9.86 137.07-8.73 137.07-7.59 137.07-6.43 137.07-5.27 137.07-4.47 137.07-3.66 137.07-3.59L137.07-3.59Q137.07-2.54 137.98-2.38 138.88-2.22 141.25-2.22L141.25-2.22 141.25 0Q139.71 0 138.24-0.02 136.78-0.05 134.68-0.05L134.68-0.05Q132.87-0.05 131.66-0.02 130.46 0 129.14 0Z" opacity="1" transform="matrix(1,0,0,1,0,0)" fill="#000000" class="wordmark-text-0" data-fill-palette-color="primary" id="text-0"></path></svg></g></svg></g></svg></g></svg></g><g transform="matrix(1,0,0,1,91.91641631073567,0)"><svg viewBox="0 0 211.68716737852864 211.68716737852864" height="211.68716737852864" width="211.68716737852864"><g><svg></svg></g><g id="icon-0"><svg viewBox="0 0 211.68716737852864 211.68716737852864" height="211.68716737852864" width="211.68716737852864"><g><path d="M0 105.844c0-58.456 47.388-105.844 105.844-105.844 58.456 0 105.844 47.388 105.843 105.844 0 58.456-47.388 105.844-105.843 105.843-58.456 0-105.844-47.388-105.844-105.843zM105.844 203.847c54.126 0 98.003-43.878 98.003-98.003 0-54.126-43.878-98.003-98.003-98.004-54.126 0-98.003 43.878-98.004 98.004 0 54.126 43.878 98.003 98.004 98.003z" data-fill-palette-color="tertiary" fill="#000000" stroke="transparent"></path></g><g transform="matrix(1,0,0,1,44.59209662036681,61.38460506314379)"><svg viewBox="0 0 122.50297413779502 88.91795725224107" height="88.91795725224107" width="122.50297413779502"><g><svg xmlns="http://www.w3.org/2000/svg" xmlns:xlink="http://www.w3.org/1999/xlink" version="1.1" x="0" y="0" viewBox="5.499 16.625007433093316 90.94800053959338 66.01399256690668" enable-background="new 0 0 100 100" xml:space="preserve" height="88.91795725224107" width="122.50297413779502" class="icon-dxe-0" data-fill-palette-color="accent" id="dxe-0"><g fill="#030303" data-fill-palette-color="accent"><g fill="#030303" data-fill-palette-color="accent"><path fill-rule="evenodd" clip-rule="evenodd" d="M92.818 23.216V72.1S78.911 68.19 68.578 70.177C59.323 71.956 52.512 76.977 51.363 77.864V78.012L51.267 77.937 51.172 78.012V77.864C50.024 76.977 43.213 71.957 33.961 70.177 23.626 68.189 8.357 72.1 8.357 72.1V23.071L5.499 23.5V76.162S22.139 71.88 33.458 74.058C44.589 76.199 51.314 82.639 51.314 82.639S58.039 76.199 69.169 74.058C80.49 71.879 96.447 76.162 96.447 76.162V23.727C96.448 23.727 95.059 23.492 92.818 23.216M33.121 65.229C42.172 66.968 49.167 72.207 49.167 72.207V24.113S42.135 18.868 33.063 17.124C23.88 15.358 11.884 18.847 11.884 18.847V66.941S23.918 63.459 33.121 65.229M89.284 67.117V19.023S78.288 15.533 69.109 17.3C60.037 19.043 52.774 24.287 52.774 24.287V72.382S59.997 67.145 69.05 65.403C78.252 63.636 89.284 67.117 89.284 67.117" fill="#000000" data-fill-palette-color="accent"></path></g></g></svg></g></svg></g></svg></g></svg></g><g></g></svg></g><defs></defs></svg><rect width="287.8398991556429" height="247.2" fill="none" stroke="none" visibility="hidden"></rect></g></svg></g></svg>